<svg width="17" height="21" viewBox="0 0 17 21" fill="none" xmlns="http://www.w3.org/2000/svg">
<path d="M14.5652 11.7044V8.52441C14.5638 7.10754 14.061 5.73688 13.1459 4.65519C12.2307 3.57349 10.9623 2.85056 9.56525 2.61441V1.52441C9.56525 1.2592 9.45989 1.00484 9.27235 0.817307C9.08482 0.629771 8.83046 0.524414 8.56525 0.524414C8.30003 0.524414 8.04568 0.629771 7.85814 0.817307C7.6706 1.00484 7.56525 1.2592 7.56525 1.52441V2.61441C6.16819 2.85056 4.89977 3.57349 3.98463 4.65519C3.06949 5.73688 2.56668 7.10754 2.56525 8.52441V11.7044C1.9817 11.9107 1.47624 12.2925 1.11819 12.7973C0.760125 13.3022 0.566986 13.9055 0.565247 14.5244V16.5244C0.565247 16.7896 0.670604 17.044 0.85814 17.2315C1.04568 17.4191 1.30003 17.5244 1.56525 17.5244H4.70525C4.93553 18.3718 5.43825 19.1198 6.13584 19.6531C6.83344 20.1865 7.68714 20.4754 8.56525 20.4754C9.44335 20.4754 10.2971 20.1865 10.9946 19.6531C11.6922 19.1198 12.195 18.3718 12.4252 17.5244H15.5652C15.8305 17.5244 16.0848 17.4191 16.2724 17.2315C16.4599 17.044 16.5652 16.7896 16.5652 16.5244V14.5244C16.5635 13.9055 16.3704 13.3022 16.0123 12.7973C15.6542 12.2925 15.1488 11.9107 14.5652 11.7044ZM4.56525 8.52441C4.56525 7.46355 4.98667 6.44613 5.73682 5.69599C6.48696 4.94584 7.50438 4.52441 8.56525 4.52441C9.62611 4.52441 10.6435 4.94584 11.3937 5.69599C12.1438 6.44613 12.5652 7.46355 12.5652 8.52441V11.5244H4.56525V8.52441ZM8.56525 18.5244C8.21622 18.5223 7.87382 18.4289 7.57208 18.2535C7.27034 18.078 7.01976 17.8267 6.84525 17.5244H10.2852C10.1107 17.8267 9.86016 18.078 9.55842 18.2535C9.25667 18.4289 8.91427 18.5223 8.56525 18.5244ZM14.5652 15.5244H2.56525V14.5244C2.56525 14.2592 2.6706 14.0048 2.85814 13.8173C3.04568 13.6298 3.30003 13.5244 3.56525 13.5244H13.5652C13.8305 13.5244 14.0848 13.6298 14.2724 13.8173C14.4599 14.0048 14.5652 14.2592 14.5652 14.5244V15.5244Z" fill="#292929" stroke="white" stroke-width="0.5"/>
</svg>
